<?xml version="1.0" standalone="no"?>
<!DOCTYPE svg PUBLIC "-//W3C//DTD SVG 1.1//EN" "../../../../www.w3.org/Graphics/SVG/1.1/DTD/svg11.dtd" >
<svg xmlns="http://www.w3.org/2000/svg">
<metadata>Generated by IcoMoon</metadata>
<defs>
<font id="Steadysets" horiz-adv-x="1024">
<font-face units-per-em="1024" ascent="960" descent="-64" />
<missing-glyph horiz-adv-x="1024" />
<glyph unicode="&#x20;" d="" horiz-adv-x="512" />
<glyph unicode="&#xe600;" d="M853.333 810.667v85.333h-256v-85.333h85.333v-768h-85.333v-85.333h256v85.333h-85.333v768zM597.333 710089DA27A10" />
<glyph unicode="&#xe601;" d="M42.667 810.667v-298.667h42.667v-469.333h853.333v469.333h42.667v298.667h-938.667zM853.333 128h-682.60EB12AAA02" />
<glyph unicode="&#xe602;" d="M896 469.334v298.667h-128v128h-682.667v-426.667h-42.667v-85.333h42.667v-469.333h853.333v469.333h42.60E5782CA81" />
<glyph unicode="&#xe603;" d="M42.667 682.667v-554.666h896v554.666h-896zM128 213.334v335.616l663.211-335.616h-663.211zM853.333 2580290F48AAD" />
<glyph unicode="&#xe604;" d="M554.667 682.667h-256v-85.333h256v85.333zM682.667 554.667h-384v-42.667h384v42.667zM682.667 469.334h-0BBF9B2AC3" />
<glyph unicode="&#xe605;" d="M213.333 938.667v-128h-128v-896h725.333v128h128v896h-725.333zM725.333-0h-554.667v725.333h42.667v-6820BD592FA20" />
<glyph unicode="&#xe606;" d="M923.435 426.667h-70.101v426.667h-725.333v-426.667h-57.899c-46.933 0-70.101-38.4-70.101-85.333v-85.30E5B229A3A" />
<glyph unicode="&#xe607;" d="M298.667 640v-85.333h256v85.333h-256zM298.667 469.334h384v42.667h-384v-42.667zM682.667 426.667h-128v0714FBBAE4" />
<glyph unicode="&#xe608;" d="M341.333 640v-85.333h256v85.333h-256zM341.333 469.334h384v42.667h-384v-42.667zM725.333 426.667h-341.07789ECA3D" />
<glyph unicode="&#xe609;" d="M298.667 640h256v-85.333h-256zM298.667 512h384v-42.667h-384zM298.667 426.667h384v-42.667h-384zM298.602FF86BA36" />
<glyph unicode="&#xe60a;" d="M128 853.334v-896h725.333v896h-725.333zM768 42.667h-554.667v725.333h554.667v-725.333zM554.667 640h-201E74E5A49" />
<glyph unicode="&#xe60b;" d="M128 853.334v-896h725.333v896h-725.333zM768 42.667h-554.667v725.333h554.667v-725.333zM682.667 640h-209A9CE8A0C" />
<glyph unicode="&#xe60c;" d="M128 853.334v-896h725.333v896h-725.333zM768 42.667h-554.667v725.333h554.667v-725.333zM597.333 640h-209A9352A0A" />
<glyph unicode="&#xe60d;" d="M128 853.334v-896h725.333v896h-725.333zM768 42.667h-554.667v725.333h554.667v-725.333zM682.667 640h-301488E5A58" />
<glyph unicode="&#xe60e;" d="M597.333 768v42.667c0 47.104-38.229 85.333-85.333 85.333h-170.667c-47.104 0-85.333-38.229-85.333-85.0470BA0AE0" />
<glyph unicode="&#xe60f;" d="M512 558.080c-83.584 0-159.232-33.877-214.016-88.661l60.416-60.416c39.339 39.381 93.653 63.744 153.607C86D4A12" />
<glyph unicode="&#xe610;" d="M297.984 387.499l60.416-60.416c39.339 39.339 93.653 63.744 153.6 63.744s114.261-24.405 153.6-63.744l60.416 60.416c-54.784 54.784-130.432 88.661-214.016 88.661s-159.232-33.877-214.016-88.661zM512 670.848c-137.344 0-261.675-55.68-351.659-145.664l60.501-60.501c74.581 74.624 177.579 120.832 291.157 120.832s216.576-46.208 291.157-120.832l60.501 60.501c-89.984 89.984-214.315 145.664-351.659 145.664zM512 298.667c-35.328 0-64-28.672-64-64s28.672-64 64-64 64 28.672 64 64-28.672 64-64 64z" />
<glyph unicode="&#xe611;" d="M297.984 259.499l60.416-60.416c39.339 39.339 93.653 63.744 153.6 63.744s114.261-24.405 153.6-63.744l60.416 60.416c-54.784 54.741-130.432 88.661-214.016 88.661s-159.232-33.92-214.016-88.661zM160.341 397.184l60.501-60.501c74.581 74.624 177.579 120.832 291.157 120.832s216.576-46.208 291.157-120.832l60.501 60.501c-89.984 89.984-214.315 145.664-351.659 145.664s-261.675-55.68-351.659-145.664zM512 737.494c-191.104 0-364.075-77.44-489.344-202.709l60.544-60.544c109.867 109.867 261.547 177.92 428.8 177.92s318.933-68.053 428.8-177.92l60.544 60.544c-125.269 125.269-298.24 202.709-489.344 202.709zM512 170.667c-35.328 0-64-28.672-64-64s28.672-64 64-64 64 28.672 64 64-28.672 64-64 64z" />
<glyph unicode="&#xe612;" d="M597.333 853.334v-170.667h-170.667v-170.667h-170.667v-170.667h-170.667v-341.333h810.667v853.333h-2980002A8DAEF" />
<glyph unicode="&#xe613;" d="M597.333 853.334v-170.667h-170.667v-170.667h-170.667v-170.667h-170.667v-341.333h810.667v853.333h-2980E10242A21" />
<glyph unicode="&#xe614;" d="M597.333 853.334v-170.667h-170.667v-170.667h-170.667v-170.667h-170.667v-341.333h810.667v853.333h-2980C03071A71" />
<glyph unicode="&#xe615;" d="M597.333 853.334v-170.667h-170.667v-170.667h-170.667v-170.667h-170.667v-341.333h810.667v853.333h-298.667zM810.667 85.334h-128v682.667h128v-682.667z" />
<glyph unicode="&#xe616;" d="M597.333 853.334v-170.667h-170.667v-170.667h-170.667v-170.667h-170.667v-341.333h810.667v853.333h-298.667z" />
<glyph unicode="&#xe617;" d="M384.171 810.667v-810.667h511.531v341.333h127.829v469.333h-639.36zM810.411 85.334h-340.992v128h340.992v-128zM810.411 256h-340.992v128h340.992v-128zM938.283 426.667h-468.864v128h468.864v-128zM938.283 597.334h-468.864v128h468.864v-128zM0.469-0h298.453v810.667h-298.453v-810.667zM85.717 725.334h127.915v-128h-127.915v128zM85.717 554.667h127.915v-128h-127.915v128zM85.717 384h127.915v-128h-127.915v128zM85.717 213.334h127.915v-128h-127.915v128z" />
<glyph unicode="&#xe618;" d="M42.667 853.334v-896h895.147v896h-895.147zM852.565 554.667h-213.163v213.333h213.163v-213.333zM852.560BFC571AD7" />
<glyph unicode="&#xe619;" d="M895.659 670.763v97.237h-767.317v-97.237l-127.872-42.667v-402.816l127.872-42.667v-97.28h767.317v97.20F48091A4D" />
<glyph unicode="&#xe61a;" d="M887.979 597.334c-17.579 49.664-64.981 85.333-120.576 85.333h-639.488c-70.528 0-127.915-57.429-127.915-128v-298.667c0-70.571 57.387-128 127.915-128h639.445c55.595 0 102.997 35.669 120.576 85.333h92.544v384h-92.501zM809.941 256c0-23.509-19.072-42.667-42.581-42.667h-639.445c-23.552 0-42.667 19.157-42.667 42.667v298.667c0 23.509 19.115 42.667 42.667 42.667h639.445c23.509 0 42.581-19.157 42.581-42.667v-298.667zM895.232 298.667h-42.624v213.333h42.624v-213.333zM430.805 298.667l42.581 85.333h213.163l-255.744 128-42.667-85.333h-213.163l255.829-128z" />
<glyph unicode="&#xe61b;" d="M888.32 597.334c-17.579 49.664-64.981 85.333-120.576 85.333h-639.445c-70.528 0-127.872-57.429-127.870C17862A7F" />
<glyph unicode="&#xe61c;" d="M426.624 682.667v-384h-192l277.333-277.077 277.333 277.077h-192v386.005c0 46.080-38.144 83.328-85.333 83.328-47.232 0-85.333-39.253-85.333-85.333z" />
<glyph unicode="&#xe61d;" d="M213.333 341.334h384v-192l277.077 277.333-277.077 277.333v-192h-386.005c-46.080 0-83.328-38.144-83.328-85.333s39.253-85.333 85.333-85.333z" />
<glyph unicode="&#xe61e;" d="M589.568 807.254c-191.403 0-349.653-133.035-373.675-320.555l-162.048 31.36 159.488-235.904 235.904 10574DF0A27" />
<glyph unicode="&#xe61f;" d="M234.027 457.174c19.072 114.048 136.96 238.421 276.437 238.421 80.683 0 152.747-37.035 203.179-94.120CD0654AD5" />
<glyph unicode="&#xe620;" d="M544.768 896l-170.667-213.333h-170.667c-70.613 0-118.101-68.096-118.101-138.667v-245.333c0-70.571 47050678BAA8" />
<glyph unicode="&#xe621;" d="M502.101 896l-170.667-213.333h-170.667c-70.613 0-118.101-68.096-118.101-138.667v-245.333c0-70.571 4708587A2A00" />
<glyph unicode="&#xe622;" d="M502.101 896l-170.667-213.333h-170.667c-70.613 0-118.101-68.096-118.101-138.667v-245.333c0-70.571 47.488-128 118.101-128h170.667l170.667-213.333c42.667 0 95.232 0 95.232 0v938.667c-42.667 0-52.565 0-95.232 0zM298.667 256h-137.899c-23.595 0-32.768 19.157-32.768 42.667v245.333c0 23.509 9.173 53.333 32.768 53.333h137.899v-341.333zM512 85.334l-170.667 170.667v341.333l170.667 170.667v-682.667zM725.333 469.334h256v-85.333h-256z" />
<glyph unicode="&#xe623;" d="M597.333 373.675v-288.341l-144.171 144.171-58.837-58.837h22.4l170.667-213.333c42.667 0 95.232 0 95.20A47954A83" />
<glyph unicode="&#xe624;" d="M597.333 896h-213.333c-70.656 0-128-57.301-128-128v-384c0-70.699 57.344-128 128-128h213.333c70.656 00AABD86AB4" />
<glyph unicode="&#xe625;" d="M170.667 308.992l42.667 42.667v160.341h-42.667v-85.333h-42.667v-85.333h42.667v-32.341zM810.667 426.604CCDB1A3A" />
<glyph unicode="&#xe626;" d="M379.435 898.646l-183.936-135.68-24.832 5.035v-725.333l554.667-128v725.333l-418.048 97.877 90.453 70.144 412.928-82.688v-341.333h42.667v419.584l-473.899 95.061z" />
<glyph unicode="&#xe627;" d="M383.147-42.666l-243.627 426.411 148.181 84.651 97.664-170.837 352.043 598.443 147.072-86.485-501.333-852.181z" />
<glyph unicode="&#xe628;" d="M170.667 682.667l411.819-0.597 50.261 85.333-547.413 0.597v-426.667l85.333 85.333v256zM170.667 85.3301D1860AE3" />
<glyph unicode="&#xe629;" d="M85.333 768v-768h810.667v768h-810.667zM810.667 85.334h-640v597.333h640v-597.333zM725.248 426.667h-469.248v-128h469.248v128z" />
<glyph unicode="&#xe62a;" d="M853.333 896h-725.333c-70.571 0-128-57.429-128-128v-512c0-70.571 85.333-85.333 128-85.333v-256l384 20DD2E97A8A" />
<glyph unicode="&#xe62b;" d="M277.333 554.667c35.328 0 64-28.629 64-64s-28.672-64-64-64-64 28.629-64 64 28.672 64 64 64zM853.333 09E9553A96" />
<glyph unicode="&#xe62c;" d="M277.333 554.667c35.328 0 64-28.629 64-64s-28.672-64-64-64-64 28.629-64 64 28.672 64 64 64zM490.667 085C26BA0C" />
<glyph unicode="&#xe62d;" d="M277.333 554.667c35.328 0 64-28.629 64-64s-28.672-64-64-64-64 28.629-64 64 28.672 64 64 64zM490.667 07202D3AB6" />
<glyph unicode="&#xe62e;" d="M853.333 896h-725.333c-70.571 0-128-57.429-128-128v-512c0-70.571 85.333-85.333 128-85.333v-256l384 20DED23DAE3" />
<glyph unicode="&#xe62f;" d="M853.333 768v170.667h-256v-170.667h-170.667v170.667h-256v-170.667h-170.667v-810.667h1024v810.667h-170DC6B49AA3" />
<glyph unicode="&#xe630;" d="M128 938.667v-989.013l349.099 203.264 376.235-219.093v1004.843h-725.333zM213.333 98.091v755.243h256v08EFF00A56" />
<glyph unicode="&#xe631;" d="M459.989 329.643l-33.323-329.643 203.52 251.435 194.731-87.893 199.083 689.792-564.011-523.691zM10240A363F7A97" />
<glyph unicode="&#xe632;" d="M512 100.096l-1.493-1.835-339.84 435.072c-15.488 19.541-42.667 43.136-42.667 96.768 0 94.123 76.587 0F1BC99A16" />
<glyph unicode="&#xe633;" d="M520.491 445.184l-179.157 179.157v-112.341h-298.667v-128h298.667v-118.016l179.157 179.2zM384 896v-1404B0633A7C" />
<glyph unicode="&#xe634;" d="M816.043 42.667c122.197 0 202.923 134.869 202.923 272 0 117.845-97.28 222.336-214.784 237.995l-19.499 52.011c-47.317 125.099-162.645 205.995-293.845 205.995-175.019 0-317.355-143.531-317.355-320 0-7.723 0.384-15.275 1.067-22.613-95.275-11.051-169.515-92.331-169.515-190.72 0-91.349 70.955-221.568 171.008-234.667h640zM595.84 393.558v0c37.888 54.528 114.133 60.075 148.181 76.629l0.299-0.853h29.525c83.627 0 159.744-64 159.744-144.981 0-78.592-52.096-196.352-136.235-196.352h-616.405c-46.891 0-90.581 101.248-90.581 159.019 0.043 65.835 58.283 113.621 127.061 99.669l66.176-15.787-16.256 64.299c-4.267 16.981-8.533 36.437-8.533 56.064 0 129.408 104.064 234.368 232.021 234.368 96.853 0 178.816-57.899 214.016-150.869-86.315-51.029-112.811-172.16-112.811-172.16" />
<glyph unicode="&#xe635;" d="M424.363 539.179c-72.235 55.851-160.213 115.029-298.667 126.251l298.667-126.251zM424.363 411.179c-7207AAE20A44" />
<glyph unicode="&#xe636;" d="M783.531-64.981c-16.171-0.085-33.152 4.565-50.517 13.739l-165.376 86.912c-27.648 14.592-83.627 14.5901825C8A0F" />
<glyph unicode="&#xe637;" d="M512 938.667c-282.752 0-512-229.248-512-512s229.248-512 512-512 512 229.248 512 512-229.248 512-512 057A2BEA60" />
<glyph unicode="&#xe638;" d="M810.667 938.667c-170.667 0-213.333-128-213.333-213.333v-213.333h-597.333v-469.333c0-70.571 57.429-1012116BADA" />
<glyph unicode="&#xe639;" d="M469.333 182.486v-97.152h85.333v97.152c25.429 14.805 42.667 41.984 42.667 73.515 0 47.104-38.229 85.0FE6560AC5" />
<glyph unicode="&#xe63a;" d="M640 325.846c0 0-263.765 0-362.667-230.827 0 0 165.163-65.92 362.667-65.92s362.667 65.92 362.667 65.0D618EEA29" />
<glyph unicode="&#xe63b;" d="M512 298.667c0 0-341.333 0-469.333-298.667 0 0 213.76-85.333 469.333-85.333s469.333 85.333 469.333 80AC09FAA64" />
<glyph unicode="&#xe63c;" d="M1006.421 87.040c-62.251 143.317-206.549 226.56-311.296 262.144 64.171 52.437 102.059 151.339 102.050BDF2F2AFD" />
<glyph unicode="&#xe63d;" d="M1010.176 85.76c-71.552 171.008-209.664 250.581-316.715 287.531 47.787 65.579 73.941 161.792 74.965 0045564ACE" />
<glyph unicode="&#xe63e;" d="M330.24 213.334l523.093-170.667v768l-523.093-170.667h-159.573c-70.571 0-128-57.429-128-128v-170.667c025020AA5F" />
<glyph unicode="&#xe63f;" d="M853.333 256c-51.2 0-96.683-23.125-128-58.965l-312.491 156.245c8.491 22.955 13.824 47.488 13.824 73.0CFFC58A2E" />
<glyph unicode="&#xe640;" d="M0 853.334v-597.333h416l-74.667-128h341.333l-74.667 128h416v597.333h-1024zM938.667 341.334h-853.333v0101B0FA23" />
<glyph unicode="&#xe641;" d="M682.667 810.667h-341.333c-46.933 0-85.333-38.4-85.333-85.333v-597.333c0-46.933 38.4-85.333 85.333-85.333h341.333c46.933 0 85.333 38.4 85.333 85.333v597.333c0 46.933-38.4 85.333-85.333 85.333zM554.667 85.334h-85.333v85.333h85.333v-85.333zM682.667 213.334h-341.333v512h341.333v-512z" />
<glyph unicode="&#xe642;" d="M896 554.667h-298.667v-85.333h298.667v-341.333h-298.667c0-46.933-42.667-85.333-42.667-85.333h341.333c46.933 0 85.333 38.4 85.333 85.333v341.333c0 46.933-38.4 85.333-85.333 85.333zM426.667 810.667h-341.333c-46.933 0-85.333-38.4-85.333-85.333v-597.333c0-46.933 38.4-85.333 85.333-85.333h341.333c46.933 0 85.333 38.4 85.333 85.333v597.333c0 46.933-38.4 85.333-85.333 85.333zM298.667 85.334h-85.333v85.333h85.333v-85.333zM426.667 213.334h-341.333v512h341.333v-512z" />
<glyph unicode="&#xe643;" d="M85.333 725.334h341.333v-85.333h85.333v85.333c0 46.933-38.4 85.333-85.333 85.333h-341.333c-46.933 0-03EC1C8AC1" />
<glyph unicode="&#xe644;" d="M810.667 896h-597.333c-46.933 0-85.333-38.4-85.333-85.333v-768c0-46.933 38.4-85.333 85.333-85.333h5907DD593AC8" />
<glyph unicode="&#xe645;" d="M981.333 128v597.333c0 46.933-38.4 85.333-85.333 85.333h-768c-46.933 0-85.333-38.4-85.333-85.333v-590703D28AE1" />
<glyph unicode="&#xe646;" d="M298.667 170.667c0-23.564 19.103-42.667 42.667-42.667s42.667 19.103 42.667 42.667c0 23.564-19.103 42017578EAAA" />
<glyph unicode="&#xe647;" d="M42.667 810.667v-725.333h384v-85.333h554.667v810.667h-938.667zM469.333 170.667h-341.333v42.667h341.3051ED99A92" />
<glyph unicode="&#xe648;" d="M469.333 597.334h-298.667v-341.333h298.667v341.333zM426.667 319.958c0 35.328-47.744 63.957-106.667 60326A47AA3" />
<glyph unicode="&#xe649;" d="M1023.403 426.667l-113.408 130.603 15.744 172.885-167.765 38.272-87.936 149.419-158.037-68.821-158.100BF8C6ADF" />
<glyph unicode="&#xe64a;" d="M853.333 597.334v128h-853.333v-512h128v-128h853.333v512h-128zM128 298.667h-42.667v341.333h682.667v-40D37CBDABD" />
<glyph unicode="&#xe64b;" d="M907.776 640l-71.083 213.333h-111.488v42.667h-256v-42.667h-291.328l-71.083-213.333h63.915l85.333-72506C6730A1C" />
<glyph unicode="&#xe64c;" d="M777.173 768h-134.827l-68.267 85.333h-62.080v42.667h-42.667v-42.667h-44.928l-56.917-85.333h-187.648c0BC9962AB9" />
<glyph unicode="&#xe64d;" d="M256 256h512v256h-512v-256zM298.667 469.334h426.667v-170.667h-426.667v170.667zM256 597.334h512v-42.608F2534AC2" />
<glyph unicode="&#xe64e;" d="M896 682.667v128h-896v-640h128v-128h896v640h-128zM128 256h-42.667v469.333h725.333v-42.667h-682.667v-426.667zM938.667 128h-725.333v469.333h725.333v-469.333z" />
<glyph unicode="&#xe64f;" d="M511.957 938.667c-214.485 0-388.395-173.909-388.395-388.437 0-214.571 305.067-635.563 388.437-635.5600D5097AC0" />
<glyph unicode="&#xe650;" d="M657.835 913.878l-307.243-170.24-350.592 195.029v-780.928l359.851-195.072 290.091 171.008 331.392-180675D1BA5C" />
<glyph unicode="&#xe651;" d="M874.069 788.651c-92.672 92.672-220.672 150.016-362.069 150.016-141.312 0-269.312-57.344-361.984-1500A8C397A88" />
<glyph unicode="&#xe652;" d="M341.333 896v-170.667h-298.667v-640h261.845l71.893-170.667h469.333l92.928 85.333v896h-597.333zM128 102BE832A2E" />
<glyph unicode="&#xe653;" d="M928.725 554.667c-23.467 0-32.725-38.4-32.725-85.333v-85.333c0-46.933 9.259-85.333 32.725-85.333s32.0E570C3A55" />
<glyph unicode="&#xe654;" d="M895.872 224.342c0 0-298.069 299.136-298.624 330.325v42.752h85.504v256h-384.085v-256h85.333l0.171-42.752c-0.555-31.189-298.624-330.325-298.624-330.325-56.192-63.061-44.416-114.603-34.432-137.899s48.171-86.443 75.819-86.443h727.552c27.648 0 65.792 63.104 75.776 86.4s21.803 74.88-34.389 137.941zM851.883 120.022c-3.755-8.704-13.312-24.235-21.333-34.688h-679.68c-8.021 10.453-17.579 25.984-21.291 34.688-6.144 14.251 8.192 34.304 18.261 45.909 320.555 321.792 321.024 350.635 321.664 388.693v127.957l-85.632 0.085 0.128 85.248h213.248l0.128-85.248h-85.376l-0.043-129.493c0.64-36.565 1.109-65.451 321.664-387.243 10.027-11.605 24.32-31.659 18.261-45.909zM512 426.667h-42.752l-256-256v-42.752h554.752v42.752l-256 256zM426.752 298.667l42.496 85.248h42.752l42.752-85.248h-128z" />
<glyph unicode="&#xe655;" d="M85.333 938.667v-1024h853.333v1024h-853.333zM853.333-0h-682.667v853.333h682.667v-853.333zM810.667 7609357ADA38" />
<glyph unicode="&#xe656;" d="M682.325 597.334v-384h42.667v384h-42.667zM255.659 853.334v-170.667h-170.667v-597.333h170.667v-42.6670C1152EA53" />
<glyph unicode="&#xe657;" d="M896 640.726v85.333h-600.491l-49.323 139.904c-8.021 22.144-32.427 34.944-54.613 26.965s-33.749-34.260EDF635AA5" />
<glyph unicode="&#xe658;" d="M810.667 896.043h-640v-896h341.333v298.667h298.667v597.333zM469.333 85.376h-213.333v213.333h213.333v0AB4CCDA8A" />
<glyph unicode="&#xe659;" d="M981.248-0.085h-85.248v42.752h-42.752v-42.752h-85.12v42.752h-42.752v-42.752h-85.248v42.752h-42.752v-0A141A2A3C" />
<glyph unicode="&#xe65a;" d="M810.667 384v341.333h-341.333v170.667h-256v-170.667h-170.667v-256h170.667v-341.333h341.333v-170.667h0EFB722A93" />
<glyph unicode="&#xe65b;" d="M0 810.667v-768h1024v768h-1024zM938.667 128h-853.333v597.333h853.333v-597.333zM618.667 407.723c47.060D9B3C8AC6" />
<glyph unicode="&#xe65c;" d="M516.736 917.334l-474.069-232.619v-470.784l469.333-277.931 469.333 277.931v470.784l-464.597 232.619z01D8671ABA" />
<glyph unicode="&#xe65d;" d="M981.333-0v42.667h-42.667v-42.667h-42.667v426.667h-213.333v-426.667h-42.667v853.333h-213.333v-853.33072B2CCA00" />
<glyph unicode="&#xe65e;" d="M167.083 783.062c-97.664-70.229-161.579-184.533-161.579-313.728 0-47.232 8.917-92.288 24.491-134.1870769AF1A8D" />
<glyph unicode="&#xe65f;" d="M550.827 912.896l-375.424-670.080 1.92-0.981 18.987-301.397 275.072 136.619 1.749-0.981 375.424 670.009A689A79" />
<glyph unicode="&#xe660;" d="M128 341.334h42.667v42.667h-42.667v-42.667zM170.667 768h-42.667v-42.667h42.667v42.667zM170.667-0h-420A4C590AC2" />
<glyph unicode="&#xe661;" d="M640 749.056v85.333c0 47.104-63.659 104.277-110.848 104.277h-34.219c-47.147 0-110.848-57.173-110.848048505CA09" />
<glyph unicode="&#xe662;" d="M128 853.334v-896h725.333v896h-725.333zM768 42.667h-554.667v725.333h554.667v-725.333zM385.067 260.7300872E5A90" />
<glyph unicode="&#xe663;" d="M0 896v-938.667h1024v938.667h-1024zM938.667 42.667h-853.333v554.667h853.333v-554.667zM938.667 640h-8067C005A3F" />
<glyph unicode="&#xe664;" d="M128 896v-128h-128v-810.667h896v128h128v810.667h-896zM810.667 42.667h-725.333v640h42.667v-597.333h680FEC2D2AA9" />
<glyph unicode="&#xe665;" d="M0 896v-938.667h1024v938.667h-1024zM938.667 42.667h-853.333v554.667h853.333v-554.667zM938.667 640h-80C76FFCAF3" />
<glyph unicode="&#xe666;" d="M597.333 768v42.667c0 47.104-38.229 85.333-85.333 85.333h-170.667c-47.104 0-85.333-38.229-85.333-85.04B6B25A30" />
<glyph unicode="&#xe667;" d="M597.333 810.667v42.667c0 47.104-38.229 85.333-85.333 85.333h-170.667c-47.104 0-85.333-38.229-85.333-85.333v-42.667h-170.667v-128h-42.667v-298.667h85.333v213.333h768v-512h-469.333v-85.333h554.667v810.667h-384zM896 682.667h-725.333v42.667h170.667v128h170.667v-128h384v-42.667zM256 341.334h-128v-128h-128v-128h128v-128h128v128h128v128h-128z" />
<glyph unicode="&#xe668;" d="M597.333 768v42.667c0 47.104-38.229 85.333-85.333 85.333h-170.667c-47.104 0-85.333-38.229-85.333-85.053BE65A14" />
<glyph unicode="&#xe669;" d="M888.32 597.334c-17.579 49.664-64.981 85.333-120.576 85.333h-639.445c-70.528 0-127.872-57.429-127.87051A5E1A34" />
<glyph unicode="&#xe66a;" d="M888.32 597.334c-17.579 49.664-64.981 85.333-120.576 85.333h-639.445c-70.528 0-127.872-57.429-127.870BE9540A02" />
<glyph unicode="&#xe66b;" d="M888.32 597.334c-17.579 49.664-64.981 85.333-120.576 85.333h-639.445c-70.528 0-127.872-57.429-127.870ADDC84AC4" />
<glyph unicode="&#xe66c;" d="M888.32 597.334c-17.579 49.664-64.981 85.333-120.576 85.333h-639.445c-70.528 0-127.872-57.429-127.87084594EACE" />
<glyph unicode="&#xe66d;" d="M426.581 576.086c86.997 0 157.952-65.323 168.533-149.419h150.016c-1.408 20.139-4.139 39.893-9.045 580DCECD7AC1" />
<glyph unicode="&#xe66e;" d="M767.872 512h-384v192l-277.077-277.333 277.077-277.333v192h386.005c46.080 0 83.328 38.144 83.328 85.333s-39.253 85.333-85.333 85.333z" />
<glyph unicode="&#xe66f;" d="M597.333 128v384h192l-277.333 277.077-277.333-277.077h192v-386.005c0-46.080 38.144-83.328 85.333-83.328s85.333 39.253 85.333 85.333z" />
<glyph unicode="&#xe670;" d="M903.211 737.835l-120.661 120.661c-83.2 83.157-218.539 83.157-301.696 0l-422.4-422.357 60.331-60.33106DDF69AF6" />
<glyph unicode="&#xe671;" d="M640 469.334v469.333h-213.333v-469.333h-168.661l271.488-271.531 271.488 271.531zM860.16 640h-134.8270A1C4DFAD5" />
<glyph unicode="&#xe672;" d="M938.069 562.304l-120.96 376.021-390.656-120.747-341.163-630.485 503.381-272.085 340.309 628.949c0.20D5C837A5C" />
<glyph unicode="&#xe673;" d="M640 768v128h-256v-128h-170.667v-85.333h597.333v85.333h-170.667zM555.435 768h-85.333v42.667h85.333v-01ABCC3AC6" />
<glyph unicode="&#xe674;" d="M33.835 35.499l60.331-60.331 187.093 187.093-58.752 61.909-188.672-188.672zM602.667 896c-209.067 0-303D552DAF2" />
<glyph unicode="&#xe675;" d="M33.835 35.499l60.331-60.331 187.093 187.093-58.752 61.909-188.672-188.672zM602.667 896c-209.109 0-307A30A5ABC" />
<glyph unicode="&#xe676;" d="M33.835 35.499l60.331-60.331 187.093 187.093-58.752 61.909-188.672-188.672zM602.667 896c-209.109 0-378.667-169.557-378.667-378.667 0-81.877 26.325-157.44 70.485-219.435l71.253-75.093c64.896-52.352 147.029-84.181 236.928-84.181 209.109 0 378.667 169.557 378.667 378.667s-169.557 378.709-378.667 378.709zM602.667 224c-161.749 0-293.333 131.584-293.333 293.333s131.584 293.333 293.333 293.333 293.333-131.584 293.333-293.333-131.584-293.333-293.333-293.333zM469.248 554.582h256v-85.333h-256z" />
<glyph unicode="&#xe677;" d="M938.667 554.667h-85.333v341.333h-682.667v-341.333h-85.333c-46.933 0-85.333-38.4-85.333-85.333v-426.0E089D0AC0" />
<glyph unicode="&#xe678;" d="M896 612.224v283.776h-213.333v-126.421l-171.435 126.421-511.232-384h128v-554.667h768v554.667l128-0.00EC8F44AE3" />
<glyph unicode="&#xe679;" d="M810.581 853.419v-17.707c-42.624 12.629-75.477 19.669-114.688 19.669-76.501 0-152.747-23.851-224.5120DDB778ACB" />
<glyph unicode="&#xe67a;" d="M512 938.667c-282.752 0-512-229.248-512-512s229.248-512 512-512 512 229.248 512 512-229.248 512-512 0124627A86" />
<glyph unicode="&#xe67b;" d="M490.667 341.334c35.2 0 64 38.4 64 85.333v341.333c0 46.933-28.8 85.333-64 85.333s-64-38.4-64-85.333v063EB01A27" />
<glyph unicode="&#xe67c;" d="M490.667 810.667c-223.488 0-405.333-181.845-405.333-405.333s181.845-405.333 405.333-405.333 405.333 181.845 405.333 405.333-181.845 405.333-405.333 405.333zM170.667 405.334c0 176.469 143.531 320 320 320 65.109 0 125.696-19.669 176.299-53.205l-443.093-443.093c-33.536 50.603-53.205 111.189-53.205 176.299zM490.667 85.334c-65.109 0-125.696 19.669-176.299 53.205l443.093 443.093c33.536-50.603 53.205-111.189 53.205-176.299 0-176.469-143.531-320-320-320z" />
<glyph unicode="&#xe67d;" d="M810.667 554.667v128c0 85.333-85.333 213.333-298.667 213.333s-298.667-128-298.667-213.333v-128h-85.308F331CA6C" />
<glyph unicode="&#xe67e;" d="M128 682.667h768v-426.667h85.333v512h-938.667v-512h85.333v426.667zM682.667 213.334c-8.192-17.152-48.0D43059AB4" />
<glyph unicode="&#xe67f;" d="M533.291 554.667c-106.027 0-191.957-85.973-191.957-192s85.931-192 191.957-192c105.984 0 191.957 85.902B588DA8F" />
<glyph unicode="&#xe680;" d="M896 810.667h-768c-70.571 0-128-57.429-128-128v-469.333c0-70.571 57.429-128 128-128h42.667l42.667-8509ABB23A0A" />
<glyph unicode="&#xe681;" d="M938.667 640h-85.333v25.173c0 46.976-38.229 102.827-85.333 102.827h-682.667c-47.104 0-85.333-55.851-037045EA2C" />
<glyph unicode="&#xe682;" d="M170.667 256h128v128h-128v-128zM213.333 341.334h42.667v-42.667h-42.667v42.667zM341.333 256h128v128h-0FD848BAD3" />
<glyph unicode="&#xe683;" d="M768 640v128.171l-128 127.829h-256l-128-127.829v-128.171h-128v-725.333h768v725.333h-128zM384 810.667066A7DEA99" />
<glyph unicode="&#xe684;" d="M742.741 854.742h-461.483l-281.259-278.741 512-577.408 512 577.408-281.259 278.741zM921.344 553.472l0EC2991A97" />
<glyph unicode="&#xe685;" d="M554.667 765.867v44.8h21.333c11.776 0 21.333 9.557 21.333 21.333v85.333c0 11.776-9.557 21.333-21.3330BE0890A7E" />
<glyph unicode="&#xe686;" d="M512 554.71c-70.656 0-128-57.344-128-128s57.344-128 128-128 128 57.344 128 128-57.344 128-128 128zM90A8DD24A29" />
<glyph unicode="&#xe687;" d="M836.352 720.854l60.331-60.331 60.331 60.331-150.827 150.827-60.373-60.331 60.331-60.331-90.539-90.507E535BAB4" />
<glyph unicode="&#xe688;" d="M886.827 802.432c-257.749 36.651-515.029 36.736-773.376-0.085-66.773-9.984-113.451-73.173-113.451-14018AC00A34" />
<glyph unicode="&#xe689;" d="M708.651 444.374l-184.789 39.68 85.291 397.056-293.803-439.552 148.907-32-93.909-437.291 338.304 472.107z" />
<glyph unicode="&#xe68a;" d="M874.069 788.694c-99.84 99.797-262.229 99.797-362.112 0l-361.984-362.027c-99.797-99.84-99.84-262.229 0-362.027 99.84-99.797 262.187-99.797 362.027 0l362.069 362.027c99.755 99.84 99.84 262.229 0 362.027zM813.739 728.363c66.517-66.56 66.517-174.848 0-241.365l-181.077-180.992-241.323 241.323 180.992 181.035c66.603 66.56 174.848 66.56 241.408 0z" />
<glyph unicode="&#xe68b;" d="M931.157 307.84c-3.413 2.005-6.912 3.84-10.539 5.675l-7.936 5.163-173.952 122.155 50.517 37.675c47.70C37340A8B" />
</font>
</defs>
</svg>
